<mxfile host="app.diagrams.net" modified="2023-05-13T13:01:54.285Z" agent="Mozilla/5.0 (Windows NT 10.0; Win64; x64) AppleWebKit/537.36 (KHTML, like Gecko) Chrome/113.0.0.0 Safari/537.36" etag="OjwKeZlOalJ4L1A4u_Sh" version="21.2.9" type="device">
  <diagram name="第 1 页" id="gDMn7VU1hTswdYV3O7S1">
    <mxGraphModel dx="3637" dy="618" grid="1" gridSize="10" guides="1" tooltips="1" connect="1" arrows="1" fold="1" page="1" pageScale="1" pageWidth="827" pageHeight="1169" math="0" shadow="0">
      <root>
        <mxCell id="0" />
        <mxCell id="1" parent="0" />
        <mxCell id="83UN5md2pDeif0zwmpjT-5" value="" style="rounded=1;whiteSpace=wrap;html=1;align=left;" vertex="1" parent="1">
          <mxGeometry x="-1641" y="190" width="426" height="137.5" as="geometry" />
        </mxCell>
        <mxCell id="83UN5md2pDeif0zwmpjT-1" value="&lt;div&gt;Overridable method addChangeListener is called&amp;nbsp;&lt;span style=&quot;background-color: initial;&quot;&gt;from method clone()&lt;/span&gt;&lt;span style=&quot;background-color: initial;&quot;&gt;&amp;nbsp;&lt;/span&gt;&lt;/div&gt;&lt;div&gt;&lt;span style=&quot;background-color: initial;&quot;&gt;in class org.jfree.chart.plot.PiePlot.&lt;/span&gt;&lt;/div&gt;&lt;div&gt;Bug type MC_OVERRIDABLE_METHOD_CALL_IN_CLONE (click for details)&lt;/div&gt;&lt;div&gt;In class org.jfree.chart.plot.PiePlot&amp;nbsp;&lt;/div&gt;&lt;div&gt;&lt;span style=&quot;background-color: initial;&quot;&gt;In method org.jfree.chart.plot.PiePlot.clone()&lt;/span&gt;&lt;/div&gt;&lt;div&gt;Value addChangeListenerAt PiePlot.java:[line 3051]&lt;/div&gt;" style="text;html=1;strokeColor=none;fillColor=none;align=center;verticalAlign=middle;whiteSpace=wrap;rounded=0;" vertex="1" parent="1">
          <mxGeometry x="-1641" y="210" width="426" height="65.25" as="geometry" />
        </mxCell>
        <mxCell id="83UN5md2pDeif0zwmpjT-7" value="&lt;b&gt;code&lt;br&gt;tokenize&lt;br&gt;&lt;/b&gt;" style="text;html=1;strokeColor=none;fillColor=none;align=center;verticalAlign=middle;whiteSpace=wrap;rounded=0;" vertex="1" parent="1">
          <mxGeometry x="-1231" y="293.5" width="90" height="30" as="geometry" />
        </mxCell>
        <mxCell id="83UN5md2pDeif0zwmpjT-8" value="&lt;b&gt;word &lt;br&gt;tokenize&lt;/b&gt;" style="text;html=1;strokeColor=none;fillColor=none;align=center;verticalAlign=middle;whiteSpace=wrap;rounded=0;" vertex="1" parent="1">
          <mxGeometry x="-1230" y="233.62" width="90" height="30" as="geometry" />
        </mxCell>
        <mxCell id="83UN5md2pDeif0zwmpjT-12" value="&lt;pre style=&quot;border: 0px; box-sizing: border-box; overflow: auto; font-size: 14px; padding: 1px 0px; margin-top: 0px; margin-bottom: 0px; line-height: inherit; word-break: break-all; overflow-wrap: break-word; background-color: rgb(255, 255, 255); border-radius: 0px; vertical-align: baseline; text-align: left;&quot;&gt;&lt;br&gt;&lt;/pre&gt;" style="rounded=1;whiteSpace=wrap;html=1;" vertex="1" parent="1">
          <mxGeometry x="-1148" y="189" width="357" height="140" as="geometry" />
        </mxCell>
        <mxCell id="83UN5md2pDeif0zwmpjT-13" value="&#39;Overridable&#39;, &#39;method&#39;, &#39;addChangeListener&#39;, &#39;is&#39;, &#39;called&#39;, &#39;from&#39;, &#39;method&#39;, &#39;clone&#39;, &#39;(&#39;, &#39;)&#39;, &#39;in&#39;, &#39;class&#39;, &#39;org.jfree.chart.plot.PiePlot.Bug&#39;, &#39;type&#39;, &#39;MC_OVERRIDABLE_METHOD_CALL_IN_CLONE&#39;, &#39;(&#39;, &#39;click&#39;, &#39;for&#39;, &#39;details&#39;, &#39;)&#39;, &#39;In&#39;, &#39;class&#39;, &#39;org.jfree.chart.plot.PiePlot&#39;, &#39;In&#39;, &#39;method&#39;, &#39;org.jfree.chart.plot.PiePlot.clone&#39;, &#39;(&#39;, &#39;)&#39;, &#39;Value&#39;, &#39;addChangeListenerAt&#39;, &#39;PiePlot.java&#39;, &#39;:&#39;, &#39;[&#39;, &#39;line&#39;, &#39;3051&#39;, &#39;]&#39;" style="text;html=1;strokeColor=none;fillColor=none;align=center;verticalAlign=middle;whiteSpace=wrap;rounded=0;" vertex="1" parent="1">
          <mxGeometry x="-1149.5" y="189" width="360" height="94.38" as="geometry" />
        </mxCell>
        <mxCell id="83UN5md2pDeif0zwmpjT-17" value="" style="endArrow=none;html=1;rounded=0;exitX=0;exitY=0.75;exitDx=0;exitDy=0;entryX=1;entryY=0.75;entryDx=0;entryDy=0;" edge="1" parent="1" source="83UN5md2pDeif0zwmpjT-5" target="83UN5md2pDeif0zwmpjT-5">
          <mxGeometry width="50" height="50" relative="1" as="geometry">
            <mxPoint x="-1209" y="350" as="sourcePoint" />
            <mxPoint x="-1159" y="300" as="targetPoint" />
          </mxGeometry>
        </mxCell>
        <mxCell id="83UN5md2pDeif0zwmpjT-3" value="&lt;b&gt;&lt;font style=&quot;font-size: 14px;&quot;&gt;Raw Warning Detail&lt;/font&gt;&lt;/b&gt;" style="text;html=1;strokeColor=none;fillColor=none;align=center;verticalAlign=middle;whiteSpace=wrap;rounded=0;" vertex="1" parent="1">
          <mxGeometry x="-1645" y="159" width="160" height="30" as="geometry" />
        </mxCell>
        <mxCell id="rG7OzLv52ZHPMj3iYje_-5" value="&lt;div style=&quot;border-color: var(--border-color); text-align: left;&quot;&gt;clone.dataset.addChangeListener(clone);&lt;br&gt;&lt;/div&gt;" style="text;html=1;strokeColor=none;fillColor=none;align=center;verticalAlign=middle;whiteSpace=wrap;rounded=0;" parent="1" vertex="1">
          <mxGeometry x="-1631" y="283.38" width="219" height="55" as="geometry" />
        </mxCell>
        <mxCell id="83UN5md2pDeif0zwmpjT-19" value="&lt;b&gt;&lt;font style=&quot;font-size: 14px;&quot;&gt;Raw Code Snippet&lt;/font&gt;&lt;/b&gt;" style="text;html=1;strokeColor=none;fillColor=none;align=center;verticalAlign=middle;whiteSpace=wrap;rounded=0;" vertex="1" parent="1">
          <mxGeometry x="-1651" y="325.5" width="160" height="30" as="geometry" />
        </mxCell>
        <mxCell id="83UN5md2pDeif0zwmpjT-21" value="" style="endArrow=classic;html=1;rounded=0;exitX=0.998;exitY=0.871;exitDx=0;exitDy=0;exitPerimeter=0;" edge="1" parent="1">
          <mxGeometry width="50" height="50" relative="1" as="geometry">
            <mxPoint x="-1214.9199999999998" y="309.76249999999993" as="sourcePoint" />
            <mxPoint x="-1148" y="310" as="targetPoint" />
          </mxGeometry>
        </mxCell>
        <mxCell id="83UN5md2pDeif0zwmpjT-22" value="" style="endArrow=classic;html=1;rounded=0;exitX=0.998;exitY=0.871;exitDx=0;exitDy=0;exitPerimeter=0;" edge="1" parent="1">
          <mxGeometry width="50" height="50" relative="1" as="geometry">
            <mxPoint x="-1214.9199999999998" y="249.76249999999993" as="sourcePoint" />
            <mxPoint x="-1148" y="250" as="targetPoint" />
          </mxGeometry>
        </mxCell>
        <mxCell id="83UN5md2pDeif0zwmpjT-23" value="" style="endArrow=none;html=1;rounded=0;exitX=0;exitY=0.75;exitDx=0;exitDy=0;entryX=1;entryY=0.75;entryDx=0;entryDy=0;" edge="1" parent="1">
          <mxGeometry width="50" height="50" relative="1" as="geometry">
            <mxPoint x="-1147.9999999999998" y="282" as="sourcePoint" />
            <mxPoint x="-791" y="282" as="targetPoint" />
          </mxGeometry>
        </mxCell>
        <mxCell id="83UN5md2pDeif0zwmpjT-25" value="&#39;clone&#39;, &#39;.&#39;, &#39;dat&#39;, &#39;as&#39;, &#39;et&#39;, &#39;.&#39;, &#39;add&#39;, &#39;Change&#39;, &#39;Listener&#39;, &#39;(&#39;, &#39;clone&#39;, &#39;);&#39;" style="text;html=1;strokeColor=none;fillColor=none;align=center;verticalAlign=middle;whiteSpace=wrap;rounded=0;" vertex="1" parent="1">
          <mxGeometry x="-1151" y="299" width="360" height="10" as="geometry" />
        </mxCell>
        <mxCell id="83UN5md2pDeif0zwmpjT-26" value="&lt;b&gt;&lt;font style=&quot;font-size: 14px;&quot;&gt;NL_Tokens&lt;/font&gt;&lt;/b&gt;" style="text;html=1;strokeColor=none;fillColor=none;align=center;verticalAlign=middle;whiteSpace=wrap;rounded=0;" vertex="1" parent="1">
          <mxGeometry x="-1151" y="161" width="90" height="30" as="geometry" />
        </mxCell>
        <mxCell id="83UN5md2pDeif0zwmpjT-27" value="&lt;b&gt;&lt;font style=&quot;font-size: 14px;&quot;&gt;PL_Tokens&lt;/font&gt;&lt;/b&gt;" style="text;html=1;strokeColor=none;fillColor=none;align=center;verticalAlign=middle;whiteSpace=wrap;rounded=0;" vertex="1" parent="1">
          <mxGeometry x="-1148" y="325.5" width="90" height="30" as="geometry" />
        </mxCell>
        <mxCell id="83UN5md2pDeif0zwmpjT-29" value="" style="rounded=1;whiteSpace=wrap;html=1;" vertex="1" parent="1">
          <mxGeometry x="-1180" y="399" width="388" height="108" as="geometry" />
        </mxCell>
        <mxCell id="83UN5md2pDeif0zwmpjT-31" value="&#39;&amp;lt;s&amp;gt;&#39;, &#39;Overridable&#39;, &#39;method&#39;, &#39;addChangeListener&#39;, &#39;is&#39;, &#39;called&#39;, &#39;from&#39;, &lt;br&gt;&#39;method&#39;,&amp;nbsp;&#39;clone&#39;,&amp;nbsp;&#39;(&#39;, &#39;)&#39;,&amp;nbsp;&#39;in&#39;,&amp;nbsp;&#39;class&#39;, &#39;org.jfree.chart.plot.PiePlot.Bug&#39;, &lt;br&gt;&#39;type&#39;, &#39;MC_OVERRIDABLE_METHOD_CALL_IN_CLONE&#39;, &#39;(&#39;, &#39;click&#39;, &lt;br&gt;&#39;for&#39;, &#39;details&#39;, &#39;)&#39;, &#39;In&#39;, &#39;class&#39;, &#39;org.jfree.chart.plot.PiePlot&#39;, &#39;In&#39;, &#39;method&#39;, &#39;org.jfree.chart.plot.PiePlot.clone&#39;, &#39;(&#39;, &#39;)&#39;, &#39;Value&#39;, &#39;addChangeListenerAt&#39;, &#39;PiePlot.java&#39;, &#39;:&#39;, &#39;[&#39;, &#39;line&#39;, &#39;3051&#39;, &#39;]&#39;, &#39;&amp;lt;/s&amp;gt;&#39;, &#39;clone&#39;, &#39;.&#39;, &#39;dat&#39;, &#39;as&#39;, &#39;et&#39;, &#39;.&#39;, &lt;br&gt;&#39;add&#39;, &#39;Change&#39;, &#39;Listener&#39;, &#39;(&#39;, &#39;clone&#39;, &#39;);&#39;, &#39;&amp;lt;/s&amp;gt;&#39;" style="text;html=1;strokeColor=none;fillColor=none;align=left;verticalAlign=middle;whiteSpace=wrap;rounded=0;" vertex="1" parent="1">
          <mxGeometry x="-1173" y="391.88" width="388" height="124.12" as="geometry" />
        </mxCell>
        <mxCell id="83UN5md2pDeif0zwmpjT-32" value="" style="shape=flexArrow;endArrow=classic;html=1;rounded=0;exitX=1;exitY=0.75;exitDx=0;exitDy=0;" edge="1" parent="1">
          <mxGeometry width="50" height="50" relative="1" as="geometry">
            <mxPoint x="-984.4300000000001" y="338.385" as="sourcePoint" />
            <mxPoint x="-983.9300000000001" y="393.6" as="targetPoint" />
          </mxGeometry>
        </mxCell>
        <mxCell id="83UN5md2pDeif0zwmpjT-33" value="&lt;b&gt;&lt;font style=&quot;font-size: 14px;&quot;&gt;Tokens&lt;/font&gt;&lt;/b&gt;" style="text;html=1;strokeColor=none;fillColor=none;align=center;verticalAlign=middle;whiteSpace=wrap;rounded=0;" vertex="1" parent="1">
          <mxGeometry x="-1173" y="372" width="60" height="30" as="geometry" />
        </mxCell>
        <mxCell id="83UN5md2pDeif0zwmpjT-34" value="&lt;b&gt;&lt;font style=&quot;font-size: 14px;&quot;&gt;Tokens Id&lt;/font&gt;&lt;/b&gt;" style="text;html=1;strokeColor=none;fillColor=none;align=center;verticalAlign=middle;whiteSpace=wrap;rounded=0;" vertex="1" parent="1">
          <mxGeometry x="-1631" y="389" width="110" height="30" as="geometry" />
        </mxCell>
        <mxCell id="83UN5md2pDeif0zwmpjT-35" value="" style="rounded=1;whiteSpace=wrap;html=1;" vertex="1" parent="1">
          <mxGeometry x="-1621" y="416" width="380" height="71" as="geometry" />
        </mxCell>
        <mxCell id="83UN5md2pDeif0zwmpjT-37" value="[0, 3, 45416, 3, 354, 4155, 7761, 45416, 31496, 1640, 43, 179, 4684, 3, 12528, 3, 1640, 23008, 1990, 45839, 43, 1121, 4684, 3, 1121, 45416, 3, 1640, 43, 33977, 3, 3, 35, 10975, 1902, 3, 742, 2, 31496, 4, 36146, 281, 594, 4, 4917, 36657, 48887, 1640, 31496, 4397, 2]" style="text;html=1;strokeColor=none;fillColor=none;align=center;verticalAlign=middle;whiteSpace=wrap;rounded=0;" vertex="1" parent="1">
          <mxGeometry x="-1622" y="419" width="380" height="68.12" as="geometry" />
        </mxCell>
      </root>
    </mxGraphModel>
  </diagram>
</mxfile>
